<mxfile host="app.diagrams.net" agent="Mozilla/5.0 (Windows NT 10.0; Win64; x64) AppleWebKit/537.36 (KHTML, like Gecko) Chrome/135.0.0.0 Safari/537.36" version="26.2.14">
  <diagram name="Page-1" id="13e1069c-82ec-6db2-03f1-153e76fe0fe0">
    <mxGraphModel grid="1" page="1" gridSize="10" guides="1" tooltips="1" connect="1" arrows="1" fold="1" pageScale="1" pageWidth="1100" pageHeight="850" background="none" math="0" shadow="0">
      <root>
        <mxCell id="0" />
        <mxCell id="1" parent="0" />
        <mxCell id="qo_Ewy0pd0eumbeJuW0g-17" value="Usuario" style="html=1;whiteSpace=wrap;" vertex="1" parent="1">
          <mxGeometry x="40" y="70" width="110" height="50" as="geometry" />
        </mxCell>
        <mxCell id="qo_Ewy0pd0eumbeJuW0g-18" value="Interfaz" style="html=1;whiteSpace=wrap;" vertex="1" parent="1">
          <mxGeometry x="240" y="70" width="110" height="50" as="geometry" />
        </mxCell>
        <mxCell id="qo_Ewy0pd0eumbeJuW0g-19" value="Gestión Usuarios" style="html=1;whiteSpace=wrap;" vertex="1" parent="1">
          <mxGeometry x="440" y="70" width="110" height="50" as="geometry" />
        </mxCell>
        <mxCell id="qo_Ewy0pd0eumbeJuW0g-20" value="Gestión Cursos" style="html=1;whiteSpace=wrap;" vertex="1" parent="1">
          <mxGeometry x="640" y="70" width="110" height="50" as="geometry" />
        </mxCell>
        <mxCell id="qo_Ewy0pd0eumbeJuW0g-21" value="Aplicación de pagos" style="html=1;whiteSpace=wrap;" vertex="1" parent="1">
          <mxGeometry x="840" y="70" width="110" height="50" as="geometry" />
        </mxCell>
        <mxCell id="qo_Ewy0pd0eumbeJuW0g-22" value="Base de datos" style="html=1;whiteSpace=wrap;" vertex="1" parent="1">
          <mxGeometry x="1120" y="70" width="110" height="50" as="geometry" />
        </mxCell>
        <mxCell id="qo_Ewy0pd0eumbeJuW0g-23" value="" style="endArrow=none;dashed=1;html=1;rounded=0;entryX=0.5;entryY=1;entryDx=0;entryDy=0;" edge="1" parent="1" target="qo_Ewy0pd0eumbeJuW0g-17">
          <mxGeometry width="50" height="50" relative="1" as="geometry">
            <mxPoint x="95" y="800" as="sourcePoint" />
            <mxPoint x="300" y="380" as="targetPoint" />
          </mxGeometry>
        </mxCell>
        <mxCell id="qo_Ewy0pd0eumbeJuW0g-26" value="" style="html=1;points=[[0,0,0,0,5],[0,1,0,0,-5],[1,0,0,0,5],[1,1,0,0,-5]];perimeter=orthogonalPerimeter;outlineConnect=0;targetShapes=umlLifeline;portConstraint=eastwest;newEdgeStyle={&quot;curved&quot;:0,&quot;rounded&quot;:0};" vertex="1" parent="1">
          <mxGeometry x="490" y="170" width="10" height="80" as="geometry" />
        </mxCell>
        <mxCell id="qo_Ewy0pd0eumbeJuW0g-27" value="" style="html=1;verticalAlign=bottom;endArrow=block;curved=0;rounded=0;entryX=0;entryY=0;entryDx=0;entryDy=5;exitX=1;exitY=0;exitDx=0;exitDy=5;exitPerimeter=0;" edge="1" parent="1" source="qo_Ewy0pd0eumbeJuW0g-50" target="qo_Ewy0pd0eumbeJuW0g-26">
          <mxGeometry relative="1" as="geometry">
            <mxPoint x="290" y="175" as="sourcePoint" />
          </mxGeometry>
        </mxCell>
        <mxCell id="qo_Ewy0pd0eumbeJuW0g-38" value="2: Autenticación Usuario" style="edgeLabel;html=1;align=center;verticalAlign=middle;resizable=0;points=[];" connectable="0" vertex="1" parent="qo_Ewy0pd0eumbeJuW0g-27">
          <mxGeometry x="0.0947" y="3" relative="1" as="geometry">
            <mxPoint x="-4" y="-9" as="offset" />
          </mxGeometry>
        </mxCell>
        <mxCell id="qo_Ewy0pd0eumbeJuW0g-28" value="3: Autenticación Ok" style="html=1;verticalAlign=bottom;endArrow=open;dashed=1;endSize=8;curved=0;rounded=0;exitX=0;exitY=1;exitDx=0;exitDy=-5;" edge="1" parent="1" source="qo_Ewy0pd0eumbeJuW0g-26">
          <mxGeometry relative="1" as="geometry">
            <mxPoint x="290" y="245" as="targetPoint" />
          </mxGeometry>
        </mxCell>
        <mxCell id="qo_Ewy0pd0eumbeJuW0g-29" value="" style="html=1;points=[[0,0,0,0,5],[0,1,0,0,-5],[1,0,0,0,5],[1,1,0,0,-5]];perimeter=orthogonalPerimeter;outlineConnect=0;targetShapes=umlLifeline;portConstraint=eastwest;newEdgeStyle={&quot;curved&quot;:0,&quot;rounded&quot;:0};" vertex="1" parent="1">
          <mxGeometry x="290" y="290" width="10" height="80" as="geometry" />
        </mxCell>
        <mxCell id="qo_Ewy0pd0eumbeJuW0g-30" value="4: Comprar Curso" style="html=1;verticalAlign=bottom;endArrow=block;curved=0;rounded=0;entryX=0;entryY=0;entryDx=0;entryDy=5;" edge="1" parent="1" target="qo_Ewy0pd0eumbeJuW0g-29">
          <mxGeometry relative="1" as="geometry">
            <mxPoint x="100" y="295" as="sourcePoint" />
          </mxGeometry>
        </mxCell>
        <mxCell id="qo_Ewy0pd0eumbeJuW0g-31" value="7:Solicitar Pago" style="html=1;verticalAlign=bottom;endArrow=open;dashed=1;endSize=8;curved=0;rounded=0;exitX=0;exitY=1;exitDx=0;exitDy=-5;" edge="1" parent="1" source="qo_Ewy0pd0eumbeJuW0g-29">
          <mxGeometry relative="1" as="geometry">
            <mxPoint x="90" y="365" as="targetPoint" />
          </mxGeometry>
        </mxCell>
        <mxCell id="qo_Ewy0pd0eumbeJuW0g-33" value="" style="html=1;points=[[0,0,0,0,5],[0,1,0,0,-5],[1,0,0,0,5],[1,1,0,0,-5]];perimeter=orthogonalPerimeter;outlineConnect=0;targetShapes=umlLifeline;portConstraint=eastwest;newEdgeStyle={&quot;curved&quot;:0,&quot;rounded&quot;:0};" vertex="1" parent="1">
          <mxGeometry x="290" y="430" width="10" height="80" as="geometry" />
        </mxCell>
        <mxCell id="qo_Ewy0pd0eumbeJuW0g-34" value="8: Hacer Pago(Datos)" style="html=1;verticalAlign=bottom;endArrow=block;curved=0;rounded=0;entryX=0;entryY=0;entryDx=0;entryDy=5;" edge="1" parent="1" target="qo_Ewy0pd0eumbeJuW0g-33">
          <mxGeometry relative="1" as="geometry">
            <mxPoint x="90" y="435" as="sourcePoint" />
          </mxGeometry>
        </mxCell>
        <mxCell id="qo_Ewy0pd0eumbeJuW0g-35" value="12: Recibo" style="html=1;verticalAlign=bottom;endArrow=open;dashed=1;endSize=8;curved=0;rounded=0;exitX=0;exitY=1;exitDx=0;exitDy=-5;" edge="1" parent="1" source="qo_Ewy0pd0eumbeJuW0g-33">
          <mxGeometry relative="1" as="geometry">
            <mxPoint x="90" y="505" as="targetPoint" />
          </mxGeometry>
        </mxCell>
        <mxCell id="qo_Ewy0pd0eumbeJuW0g-39" value="" style="html=1;points=[[0,0,0,0,5],[0,1,0,0,-5],[1,0,0,0,5],[1,1,0,0,-5]];perimeter=orthogonalPerimeter;outlineConnect=0;targetShapes=umlLifeline;portConstraint=eastwest;newEdgeStyle={&quot;curved&quot;:0,&quot;rounded&quot;:0};" vertex="1" parent="1">
          <mxGeometry x="710" y="290" width="10" height="80" as="geometry" />
        </mxCell>
        <mxCell id="qo_Ewy0pd0eumbeJuW0g-40" value="5:Comprar Curso" style="html=1;verticalAlign=bottom;endArrow=block;curved=0;rounded=0;entryX=0;entryY=0;entryDx=0;entryDy=5;" edge="1" parent="1" source="qo_Ewy0pd0eumbeJuW0g-29" target="qo_Ewy0pd0eumbeJuW0g-39">
          <mxGeometry relative="1" as="geometry">
            <mxPoint x="640" y="305" as="sourcePoint" />
          </mxGeometry>
        </mxCell>
        <mxCell id="qo_Ewy0pd0eumbeJuW0g-41" value="6: Solicitar Pago" style="html=1;verticalAlign=bottom;endArrow=open;dashed=1;endSize=8;curved=0;rounded=0;exitX=0;exitY=1;exitDx=0;exitDy=-5;entryX=1;entryY=1;entryDx=0;entryDy=-5;entryPerimeter=0;" edge="1" parent="1" source="qo_Ewy0pd0eumbeJuW0g-39" target="qo_Ewy0pd0eumbeJuW0g-29">
          <mxGeometry relative="1" as="geometry">
            <mxPoint x="640" y="375" as="targetPoint" />
          </mxGeometry>
        </mxCell>
        <mxCell id="qo_Ewy0pd0eumbeJuW0g-42" value="" style="html=1;points=[[0,0,0,0,5],[0,1,0,0,-5],[1,0,0,0,5],[1,1,0,0,-5]];perimeter=orthogonalPerimeter;outlineConnect=0;targetShapes=umlLifeline;portConstraint=eastwest;newEdgeStyle={&quot;curved&quot;:0,&quot;rounded&quot;:0};" vertex="1" parent="1">
          <mxGeometry x="890" y="430" width="10" height="80" as="geometry" />
        </mxCell>
        <mxCell id="qo_Ewy0pd0eumbeJuW0g-43" value="9:Hacer Pago" style="html=1;verticalAlign=bottom;endArrow=block;curved=0;rounded=0;entryX=0;entryY=0;entryDx=0;entryDy=5;exitX=1;exitY=0;exitDx=0;exitDy=5;exitPerimeter=0;" edge="1" parent="1" source="qo_Ewy0pd0eumbeJuW0g-33" target="qo_Ewy0pd0eumbeJuW0g-42">
          <mxGeometry relative="1" as="geometry">
            <mxPoint x="840" y="435" as="sourcePoint" />
          </mxGeometry>
        </mxCell>
        <mxCell id="qo_Ewy0pd0eumbeJuW0g-44" value="10: Pago OK" style="html=1;verticalAlign=bottom;endArrow=open;dashed=1;endSize=8;curved=0;rounded=0;exitX=0;exitY=1;exitDx=0;exitDy=-5;" edge="1" parent="1" source="qo_Ewy0pd0eumbeJuW0g-42" target="qo_Ewy0pd0eumbeJuW0g-33">
          <mxGeometry relative="1" as="geometry">
            <mxPoint x="840" y="505" as="targetPoint" />
          </mxGeometry>
        </mxCell>
        <mxCell id="qo_Ewy0pd0eumbeJuW0g-47" value="" style="html=1;points=[[0,0,0,0,5],[0,1,0,0,-5],[1,0,0,0,5],[1,1,0,0,-5]];perimeter=orthogonalPerimeter;outlineConnect=0;targetShapes=umlLifeline;portConstraint=eastwest;newEdgeStyle={&quot;curved&quot;:0,&quot;rounded&quot;:0};" vertex="1" parent="1">
          <mxGeometry x="1190" y="640" width="10" height="80" as="geometry" />
        </mxCell>
        <mxCell id="qo_Ewy0pd0eumbeJuW0g-48" value="13:Guardar en la BBDD" style="html=1;verticalAlign=bottom;startArrow=oval;endArrow=block;startSize=8;curved=0;rounded=0;" edge="1" parent="1" target="qo_Ewy0pd0eumbeJuW0g-47">
          <mxGeometry x="0.102" relative="1" as="geometry">
            <mxPoint x="700" y="640" as="sourcePoint" />
            <mxPoint x="1020" y="640" as="targetPoint" />
            <mxPoint as="offset" />
          </mxGeometry>
        </mxCell>
        <mxCell id="qo_Ewy0pd0eumbeJuW0g-50" value="" style="html=1;points=[[0,0,0,0,5],[0,1,0,0,-5],[1,0,0,0,5],[1,1,0,0,-5]];perimeter=orthogonalPerimeter;outlineConnect=0;targetShapes=umlLifeline;portConstraint=eastwest;newEdgeStyle={&quot;curved&quot;:0,&quot;rounded&quot;:0};" vertex="1" parent="1">
          <mxGeometry x="280" y="170" width="10" height="80" as="geometry" />
        </mxCell>
        <mxCell id="qo_Ewy0pd0eumbeJuW0g-51" value="" style="html=1;verticalAlign=bottom;startArrow=oval;endArrow=block;startSize=8;curved=0;rounded=0;entryX=0;entryY=0;entryDx=0;entryDy=5;" edge="1" parent="1" target="qo_Ewy0pd0eumbeJuW0g-50">
          <mxGeometry relative="1" as="geometry">
            <mxPoint x="100" y="175" as="sourcePoint" />
          </mxGeometry>
        </mxCell>
        <mxCell id="qo_Ewy0pd0eumbeJuW0g-52" value="1: Autenticación Usuario" style="edgeLabel;html=1;align=center;verticalAlign=middle;resizable=0;points=[];" connectable="0" vertex="1" parent="qo_Ewy0pd0eumbeJuW0g-51">
          <mxGeometry relative="1" as="geometry">
            <mxPoint y="-15" as="offset" />
          </mxGeometry>
        </mxCell>
        <mxCell id="qo_Ewy0pd0eumbeJuW0g-54" value="" style="endArrow=none;dashed=1;html=1;rounded=0;entryX=0.5;entryY=1;entryDx=0;entryDy=0;" edge="1" parent="1" target="qo_Ewy0pd0eumbeJuW0g-18">
          <mxGeometry width="50" height="50" relative="1" as="geometry">
            <mxPoint x="280" y="800" as="sourcePoint" />
            <mxPoint x="400" y="390" as="targetPoint" />
            <Array as="points">
              <mxPoint x="290" y="230" />
            </Array>
          </mxGeometry>
        </mxCell>
        <mxCell id="qo_Ewy0pd0eumbeJuW0g-55" value="" style="endArrow=none;dashed=1;html=1;rounded=0;entryX=0.5;entryY=1;entryDx=0;entryDy=0;" edge="1" parent="1" target="qo_Ewy0pd0eumbeJuW0g-19">
          <mxGeometry width="50" height="50" relative="1" as="geometry">
            <mxPoint x="495" y="800" as="sourcePoint" />
            <mxPoint x="460" y="390" as="targetPoint" />
          </mxGeometry>
        </mxCell>
        <mxCell id="qo_Ewy0pd0eumbeJuW0g-56" value="" style="endArrow=none;dashed=1;html=1;rounded=0;entryX=0.5;entryY=1;entryDx=0;entryDy=0;" edge="1" parent="1" target="qo_Ewy0pd0eumbeJuW0g-20">
          <mxGeometry width="50" height="50" relative="1" as="geometry">
            <mxPoint x="695" y="800" as="sourcePoint" />
            <mxPoint x="820" y="390" as="targetPoint" />
          </mxGeometry>
        </mxCell>
        <mxCell id="qo_Ewy0pd0eumbeJuW0g-57" value="" style="endArrow=none;dashed=1;html=1;rounded=0;entryX=0.5;entryY=1;entryDx=0;entryDy=0;" edge="1" parent="1" target="qo_Ewy0pd0eumbeJuW0g-21">
          <mxGeometry width="50" height="50" relative="1" as="geometry">
            <mxPoint x="895" y="802" as="sourcePoint" />
            <mxPoint x="870" y="270" as="targetPoint" />
          </mxGeometry>
        </mxCell>
        <mxCell id="qo_Ewy0pd0eumbeJuW0g-58" value="" style="endArrow=none;dashed=1;html=1;rounded=0;entryX=0.75;entryY=1;entryDx=0;entryDy=0;" edge="1" parent="1" target="qo_Ewy0pd0eumbeJuW0g-22">
          <mxGeometry width="50" height="50" relative="1" as="geometry">
            <mxPoint x="1200" y="800" as="sourcePoint" />
            <mxPoint x="1030" y="320" as="targetPoint" />
          </mxGeometry>
        </mxCell>
      </root>
    </mxGraphModel>
  </diagram>
</mxfile>
